# xmcd CD database file
# Copyright (C) 1997 Ti Kan
# 
# Track frame offsets:
#     150
#     30420
#     51095
#     81800
#     114220
#     136722
#     160567
#     176037
#     199212
#     234177
# 
# Disc length: 3450 seconds
# 
# Revision: 1
# Processed by: cddbd v1.4b41PL1 Copyright (c) Steve Scherf et al.
# Submitted via: DiscPlay 4.0.3
# 
DISCID=6d0d780a
DTITLE=Bobby Radcliff - Live at the Rynborn
DYEAR=1900
DGENRE=
TTITLE0=Improvisations on Honky Tonk
TTITLE1=Please Have Mercy
TTITLE2=Tramp
TTITLE3=Early In The Morning
TTITLE4=The Introject
TTITLE5=Been Around The World
TTITLE6=Kool and The Gang
TTITLE7=The Honeydripper
TTITLE8=Ten Years Ago
TTITLE9=The Twist
EXTD=
EXTT0=
EXTT1=
EXTT2=
EXTT3=
EXTT4=
EXTT5=
EXTT6=
EXTT7=
EXTT8=
EXTT9=
PLAYORDER=
